# xmcd
#
# Track frame offsets:
#	150
#	14672
#	31839
#	44714
#	56806
#	69114
#	81018
#	98320
#	112275
#	123531
#	138350
#	150631
#	164289
#	178217
#	190040
#	202456
#	220325
#	235468
#	250017
#	262757
#
# Disc length: 3663 seconds
#
# Revision: 1
# Processed by: cddbd v1.5.1PL0 Copyright (c) Steve Scherf et al.
# Submitted via: audiograbber 1.83.01
#
DISCID=200e4d14
DTITLE=Tonico and Tinoco - Seleçao de Ouro
DYEAR=2000
DGENRE=Country
TTITLE0=Chico Mineiro
TTITLE1=Tristeza do Jeca
TTITLE2=Adeus Morena Adeus
TTITLE3=Destinos Iguais
TTITLE4=Velhas Cartas
TTITLE5=As Mao do Papai
TTITLE6=Besta Ruana
TTITLE7=Gondoleiro do Amor
TTITLE8=Os Dois Morenos
TTITLE9=Cabelo de Trança
TTITLE10=Mourao da Porteira
TTITLE11=Moda da Mula Preta
TTITLE12=Saudade de Matao
TTITLE13=Cavalo Preto
TTITLE14=Brasil Caboclo
TTITLE15=Cabocla Tereza
TTITLE16=Viola Cabocla
TTITLE17=Veio Pai
TTITLE18=Canoeiro
TTITLE19=Pingo D Agua
EXTD=
EXTT0=
EXTT1=
EXTT2=
EXTT3=
EXTT4=
EXTT5=
EXTT6=
EXTT7=
EXTT8=
EXTT9=
EXTT10=
EXTT11=
EXTT12=
EXTT13=
EXTT14=
EXTT15=
EXTT16=
EXTT17=
EXTT18=
EXTT19=
PLAYORDER=
